<?xml version="1.0" encoding="UTF-8"?>
<!DOCTYPE svg PUBLIC "-//W3C//DTD SVG 1.1//EN" "http://www.w3.org/Graphics/SVG/1.1/DTD/svg11.dtd">
<!-- Creator: CorelDRAW X7 -->
<svg xmlns="http://www.w3.org/2000/svg" xml:space="preserve" width="1024px" height="400px" version="1.1" style="shape-rendering:geometricPrecision; text-rendering:geometricPrecision; image-rendering:optimizeQuality; fill-rule:evenodd; clip-rule:evenodd"
viewBox="0 0 102400 40000"
 xmlns:xlink="http://www.w3.org/1999/xlink">
 <defs>
  <style type="text/css">
   <![CDATA[
    .fil2 {fill:#FEFEFE}
    .fil5 {fill:#4B4B4D}
    .fil4 {fill:#ED3237}
    .fil0 {fill:#F2F3F3}
    .fil7 {fill:#FEFEFE;fill-rule:nonzero}
    .fil3 {fill:#373435;fill-rule:nonzero}
    .fil1 {fill:url(#id0)}
    .fil6 {fill:url(#id1)}
   ]]>
  </style>
  <linearGradient id="id0" gradientUnits="userSpaceOnUse" x1="33733" y1="30442.2" x2="33733" y2="9557.72">
   <stop offset="0" style="stop-opacity:1; stop-color:#282829"/>
   <stop offset="0.521569" style="stop-opacity:1; stop-color:#918B8B"/>
   <stop offset="1" style="stop-opacity:1; stop-color:#282829"/>
  </linearGradient>
  <radialGradient id="id1" gradientUnits="userSpaceOnUse" gradientTransform="matrix(1.00001 -0 -0 1.00001 0 0)" cx="33733" cy="20000.1" r="2773.7" fx="33733" fy="20000.1">
   <stop offset="0" style="stop-opacity:1; stop-color:#ED3237"/>
   <stop offset="0.631373" style="stop-opacity:1; stop-color:#F0464B"/>
   <stop offset="1" style="stop-opacity:1; stop-color:#B83336"/>
  </radialGradient>
 </defs>
 <g id="Layer_x0020_1">
  <metadata id="CorelCorpID_0Corel-Layer"/>
  <g id="_281267248">
   <polygon class="fil0" points="0,0 102400,0 102400,40000 0,40000 "/>
   <g>
    <g>
     <path class="fil1" d="M29548 9558l8370 0c745,0 1355,609 1355,1355l0 18174c0,746 -610,1355 -1355,1355l-8370 0c-745,0 -1355,-609 -1355,-1355l0 -18174c0,-746 610,-1355 1355,-1355z"/>
     <polygon class="fil2" points="29150,12507 38317,12507 38317,27493 29150,27493 "/>
     <path class="fil2" d="M33006 28599l1415 0c224,0 408,184 408,408l0 1c0,224 -184,408 -408,408l-1415 0c-225,0 -409,-184 -409,-408l0 -1c0,-224 184,-408 409,-408z"/>
     <path class="fil3" d="M33006 28481l1415 0c144,0 276,59 372,154 95,96 154,228 154,372l0 1c0,145 -59,276 -154,372 -96,95 -227,154 -372,154l-1415 0c-145,0 -277,-59 -372,-155l0 1c-96,-96 -155,-227 -155,-372l0 -1c0,-144 59,-276 155,-372 95,-95 227,-154 372,-154zm1415 236l-1415 0c-80,0 -153,33 -205,86 -53,52 -86,125 -86,204l0 1c0,79 33,152 86,205l0 0c52,52 125,85 205,85l1415 0c79,0 152,-33 205,-85 52,-53 85,-126 85,-205l0 -1c0,-79 -33,-152 -85,-204 -53,-53 -126,-86 -205,-86z"/>
     <path class="fil2" d="M32059 10793l3308 0c132,0 239,108 239,239l0 1c0,131 -107,239 -239,239l-3308 0c-132,0 -239,-108 -239,-239l0 -1c0,-131 107,-239 239,-239z"/>
     <path class="fil3" d="M32059 10675l3308 0c99,0 188,40 253,105l0 0c64,65 104,154 104,252l0 1c0,97 -40,187 -105,252l1 0c-65,65 -154,105 -253,105l-3308 0c-98,0 -188,-40 -252,-105l0 0c-65,-65 -105,-155 -105,-252l0 -1c0,-98 40,-187 105,-252l0 0c64,-65 154,-105 252,-105zm3308 236l-3308 0c-33,0 -64,14 -85,36l-1 0c-22,21 -35,52 -35,85l0 1c0,33 13,63 35,85l1 0c21,22 52,35 85,35l3308 0c33,0 64,-13 86,-35l0 0c22,-22 35,-52 35,-85l0 -1c0,-33 -13,-63 -35,-85l0 0c-22,-22 -53,-36 -86,-36z"/>
     <path class="fil2" d="M36941 10624c226,0 409,183 409,408 0,226 -183,409 -409,409 -225,0 -408,-183 -408,-409 0,-225 183,-408 408,-408z"/>
     <path class="fil3" d="M36941 10506c146,0 278,59 373,154 95,95 154,227 154,372 0,146 -59,278 -154,373 -95,95 -227,154 -373,154 -145,0 -277,-59 -372,-154 -95,-95 -154,-227 -154,-373 0,-145 59,-277 154,-372 95,-95 227,-154 372,-154zm206 321c-53,-52 -125,-85 -206,-85 -80,0 -153,33 -205,85 -52,52 -85,125 -85,205 0,81 33,153 85,206 52,52 125,85 205,85 81,0 153,-33 206,-85 52,-53 85,-125 85,-206 0,-80 -33,-153 -85,-205z"/>
     <g>
      <path class="fil4" d="M23453 25115c-1312,-1308 -2123,-3117 -2123,-5115 0,-1998 811,-3807 2123,-5115l-730 -731c-1498,1495 -2426,3562 -2426,5846 0,2284 928,4351 2426,5846l730 -731z"/>
      <path class="fil4" d="M25640 22921c-749,-747 -1212,-1779 -1212,-2921 0,-1141 463,-2174 1212,-2921l729 731c-561,560 -909,1335 -909,2190 0,856 348,1630 909,2190l-729 731z"/>
      <path class="fil4" d="M24182 24384c-1124,-1121 -1820,-2671 -1820,-4384 0,-1713 696,-3263 1820,-4384l729 732c-936,933 -1516,2225 -1516,3652 0,1427 580,2719 1516,3653l-729 731z"/>
     </g>
     <g>
      <path class="fil4" d="M44013 14885c1312,1308 2123,3117 2123,5115 0,1998 -811,3807 -2123,5115l730 731c1498,-1494 2426,-3562 2426,-5846 0,-2284 -928,-4351 -2426,-5846l-730 731z"/>
      <path class="fil4" d="M41826 17079c749,747 1212,1780 1212,2921 0,1142 -463,2174 -1212,2921l-729 -731c561,-560 909,-1334 909,-2190 0,-855 -348,-1630 -909,-2190l729 -731z"/>
      <path class="fil4" d="M43284 15616c1124,1121 1820,2671 1820,4384 0,1713 -696,3263 -1820,4384l-729 -731c937,-934 1516,-2226 1516,-3653 0,-1427 -579,-2718 -1516,-3652l729 -732z"/>
     </g>
     <path class="fil5" d="M33733 17011c1651,0 2989,1338 2989,2989 0,1651 -1338,2989 -2989,2989 -1651,0 -2989,-1338 -2989,-2989 0,-1651 1338,-2989 2989,-2989z"/>
     <path class="fil6" d="M33733 17226c1532,0 2774,1242 2774,2774 0,1532 -1242,2774 -2774,2774 -1532,0 -2774,-1242 -2774,-2774 0,-1532 1242,-2774 2774,-2774z"/>
     <path class="fil7" d="M33362 20630l-196 0 -208 -586c0,0 0,-38 0,-113l185 0 0 -399 -237 0 0 1098 -188 0 0 -1259 513 0c67,0 100,33 100,99l0 488c0,46 -18,76 -54,89 -19,7 -60,11 -122,11l207 572zm638 0l-522 0 0 -1259 517 0 0 166 -330 0 0 368 285 0 0 163 -285 0 0 395 335 0 0 167zm748 -100c0,66 -33,99 -100,100l-420 0c-66,-1 -99,-34 -100,-100l0 -1060c1,-66 34,-99 100,-99l420 0c67,0 100,33 100,99l0 313 -188 0 0 -251 -244 0 0 936 244 0 0 -264 188 0 0 326z"/>
    </g>
    <path class="fil3" d="M53840 22134c-1,268 -135,402 -403,403l-1700 0c-268,-1 -403,-135 -404,-403l0 -4288c1,-268 136,-402 404,-403l1700 0c268,1 402,135 403,403l0 1264 -760 0 0 -1014 -987 0 0 3788 987 0 0 -1067 760 0 0 1317zm2680 403l-713 0 0 -113c-179,26 -357,52 -536,78 -235,32 -411,49 -534,49 -233,-1 -350,-136 -351,-404l0 -1187c1,-268 123,-402 365,-403l1062 0 0 -754 -713 0 0 467 -674 0 0 -617c1,-268 122,-402 364,-403l1327 0c268,1 402,135 403,403l0 2884zm-707 -593l0 -880 -713 0 0 907 713 -27zm1994 593l-733 0 0 -5094 733 0 0 5094zm1306 0l-733 0 0 -5094 733 0 0 5094zm4574 0l-794 0 -840 -2368c0,0 0,-153 0,-459l747 0 0 -1614 -961 0 0 4441 -760 0 0 -5094 2077 0c269,1 404,135 404,403l0 1974c0,184 -72,306 -218,361 -79,28 -243,42 -496,42l841 2314zm2554 -403c-1,268 -136,402 -404,403l-1320 0c-268,-1 -402,-135 -404,-403l0 -2481c2,-268 136,-402 404,-403l1320 0c268,1 403,135 404,403l0 1212 -206 205 -1208 0 0 920 700 0 0 -546 714 0 0 690zm-714 -1549l0 -788 -700 0 0 788 700 0zm3380 1549c-1,268 -136,402 -403,403l-1321 0c-268,-1 -402,-135 -403,-403l0 -2481c1,-268 135,-402 403,-403l1321 0c267,1 402,135 403,403l0 784 -727 0 0 -567 -667 0 0 2047 667 0 0 -627 727 0 0 844zm2701 0c0,269 -136,403 -404,404l-1360 0c-268,-1 -402,-135 -404,-404l0 -2480c2,-269 136,-403 404,-403l1360 0c268,0 404,134 404,403l0 2480zm-727 -216l0 -2047 -707 0 0 2047 707 0zm3340 -1295l-741 0 0 -753 -586 14 0 2653 -747 0 0 -3287 747 0 0 123c154,-29 307,-58 460,-87 184,-33 339,-50 463,-50 268,2 403,136 404,404l0 983zm2600 1914l-740 0 0 -119c-620,93 -968,139 -1043,139 -126,0 -225,-54 -296,-164 -72,-110 -108,-260 -108,-449l0 -2304c0,-159 96,-269 287,-332 139,-48 350,-72 632,-72 64,0 155,3 274,7 120,4 204,7 254,7l0 -1807 740 0 0 5094zm-740 -645l0 -2022 -459 0c-165,0 -248,82 -248,248l0 1571c0,162 78,241 235,241 37,0 194,-13 472,-38zm3409 242c-1,268 -136,402 -404,403l-1320 0c-268,-1 -402,-135 -403,-403l0 -2481c1,-268 135,-402 403,-403l1320 0c268,1 403,135 404,403l0 1212 -206 205 -1208 0 0 920 700 0 0 -546 714 0 0 690zm-714 -1549l0 -788 -700 0 0 788 700 0zm3327 38l-740 0 0 -753 -587 14 0 2653 -747 0 0 -3287 747 0 0 123c154,-29 308,-58 460,-87 185,-33 339,-50 464,-50 267,2 402,136 403,404l0 983z"/>
   </g>
  </g>
 </g>
</svg>
