<?xml version="1.0" encoding="UTF-8"?>
<!DOCTYPE svg PUBLIC "-//W3C//DTD SVG 1.1//EN" "http://www.w3.org/Graphics/SVG/1.1/DTD/svg11.dtd">
<!-- Creator: CorelDRAW X7 -->
<svg xmlns="http://www.w3.org/2000/svg" xml:space="preserve" width="1024px" height="400px" version="1.1" style="shape-rendering:geometricPrecision; text-rendering:geometricPrecision; image-rendering:optimizeQuality; fill-rule:evenodd; clip-rule:evenodd"
viewBox="0 0 102400 40000"
 xmlns:xlink="http://www.w3.org/1999/xlink">
 <defs>
  <style type="text/css">
   <![CDATA[
    .fil2 {fill:#FEFEFE}
    .fil5 {fill:#4B4B4D}
    .fil4 {fill:#ED3237}
    .fil0 {fill:#F2F3F3}
    .fil7 {fill:#FEFEFE;fill-rule:nonzero}
    .fil3 {fill:#373435;fill-rule:nonzero}
    .fil1 {fill:url(#id0)}
    .fil6 {fill:url(#id1)}
   ]]>
  </style>
  <linearGradient id="id0" gradientUnits="userSpaceOnUse" x1="51200.1" y1="26301.4" x2="51200.1" y2="5416.89">
   <stop offset="0" style="stop-opacity:1; stop-color:#282829"/>
   <stop offset="0.521569" style="stop-opacity:1; stop-color:#918B8B"/>
   <stop offset="1" style="stop-opacity:1; stop-color:#282829"/>
  </linearGradient>
  <radialGradient id="id1" gradientUnits="userSpaceOnUse" gradientTransform="matrix(1.00001 -0 -0 1.00001 0 0)" cx="51200.1" cy="15859.3" r="2773.7" fx="51200.1" fy="15859.3">
   <stop offset="0" style="stop-opacity:1; stop-color:#ED3237"/>
   <stop offset="0.631373" style="stop-opacity:1; stop-color:#F0464B"/>
   <stop offset="1" style="stop-opacity:1; stop-color:#B83336"/>
  </radialGradient>
 </defs>
 <g id="Layer_x0020_1">
  <metadata id="CorelCorpID_0Corel-Layer"/>
  <g id="_271844424">
   <polygon class="fil0" points="0,0 102400,0 102400,40000 0,40000 "/>
   <g>
    <path class="fil1" d="M47015 5417l8370 0c746,0 1355,610 1355,1355l0 18174c0,746 -609,1356 -1355,1356l-8370 0c-745,0 -1355,-610 -1355,-1356l0 -18174c0,-745 610,-1355 1355,-1355z"/>
    <polygon class="fil2" points="46617,8366 55784,8366 55784,23352 46617,23352 "/>
    <path class="fil2" d="M50473 24458l1415 0c224,0 408,184 408,409l0 0c0,224 -184,408 -408,408l-1415 0c-225,0 -409,-184 -409,-408l0 0c0,-225 184,-409 409,-409z"/>
    <path class="fil3" d="M50473 24340l1415 0c145,0 276,59 372,155 95,95 154,227 154,372l0 0c0,145 -59,276 -154,372 -96,95 -227,154 -372,154l-1415 0c-145,0 -277,-59 -372,-154l0 0c-96,-96 -155,-227 -155,-372l0 0c0,-145 59,-277 155,-372 95,-96 227,-155 372,-155zm1415 236l-1415 0c-80,0 -153,33 -205,86 -53,52 -86,125 -86,205l0 0c0,79 33,152 86,205l0 0c52,53 125,85 205,85l1415 0c79,0 152,-33 205,-85 52,-53 85,-126 85,-205l0 0c0,-80 -33,-153 -85,-205 -53,-53 -126,-86 -205,-86z"/>
    <path class="fil2" d="M49526 6652l3308 0c132,0 239,108 239,239l0 1c0,131 -107,239 -239,239l-3308 0c-132,0 -239,-108 -239,-239l0 -1c0,-131 107,-239 239,-239z"/>
    <path class="fil3" d="M49526 6534l3308 0c99,0 188,40 253,105l0 1c64,64 105,153 105,251l0 1c0,98 -41,187 -105,252l0 0c-65,65 -154,105 -253,105l-3308 0c-98,0 -188,-40 -252,-105l0 0c-65,-65 -105,-154 -105,-252l0 -1c0,-98 40,-187 105,-252l0 0c64,-65 154,-105 252,-105zm3308 237l-3308 0c-33,0 -64,13 -85,35l-1 0c-21,22 -35,52 -35,85l0 1c0,33 14,64 35,85l1 0c21,22 52,36 85,36l3308 0c34,0 64,-14 86,-36l0 0c22,-21 35,-52 35,-85l0 -1c0,-33 -13,-63 -35,-85l0 0c-22,-22 -52,-35 -86,-35z"/>
    <path class="fil2" d="M54408 6483c226,0 409,183 409,409 0,225 -183,408 -409,408 -225,0 -408,-183 -408,-408 0,-226 183,-409 408,-409z"/>
    <path class="fil3" d="M54408 6365c146,0 278,59 373,154 95,95 154,227 154,373 0,145 -59,277 -154,372 -95,95 -227,154 -373,154 -145,0 -277,-59 -372,-154 -95,-95 -154,-227 -154,-372 0,-146 59,-278 154,-373 95,-95 227,-154 372,-154zm206 321c-53,-52 -125,-85 -206,-85 -80,0 -152,33 -205,85 -52,53 -85,125 -85,206 0,80 33,153 85,205 53,52 125,85 205,85 81,0 153,-33 206,-85 52,-52 85,-125 85,-205 0,-81 -33,-153 -85,-206z"/>
    <g>
     <path class="fil4" d="M40920 20974c-1312,-1308 -2123,-3116 -2123,-5115 0,-1998 811,-3807 2123,-5115l-729 -731c-1499,1495 -2427,3562 -2427,5846 0,2284 928,4352 2427,5846l729 -731z"/>
     <path class="fil4" d="M43107 18780c-749,-747 -1212,-1779 -1212,-2921 0,-1141 463,-2174 1212,-2921l730 731c-562,560 -910,1335 -910,2190 0,856 348,1630 909,2190l-729 731z"/>
     <path class="fil4" d="M41649 20243c-1124,-1121 -1819,-2671 -1819,-4384 0,-1712 695,-3263 1819,-4383l729 731c-936,934 -1516,2225 -1516,3652 0,1427 580,2719 1516,3653l-729 731z"/>
    </g>
    <g>
     <path class="fil4" d="M61481 10744c1311,1308 2122,3117 2122,5115 0,1999 -811,3807 -2122,5115l729 731c1499,-1494 2426,-3562 2426,-5846 0,-2284 -927,-4351 -2426,-5846l-729 731z"/>
     <path class="fil4" d="M59293 12938c749,747 1212,1780 1212,2921 0,1142 -463,2174 -1212,2921l-729 -731c561,-560 909,-1334 909,-2190 0,-855 -348,-1630 -909,-2190l729 -731z"/>
     <path class="fil4" d="M60751 11476c1124,1120 1820,2671 1820,4383 0,1713 -696,3263 -1820,4384l-729 -731c937,-934 1516,-2226 1516,-3653 0,-1427 -579,-2718 -1516,-3652l729 -731z"/>
    </g>
    <path class="fil5" d="M51200 12870c1651,0 2989,1338 2989,2989 0,1651 -1338,2989 -2989,2989 -1651,0 -2989,-1338 -2989,-2989 0,-1651 1338,-2989 2989,-2989z"/>
    <path class="fil6" d="M51200 13086c1532,0 2774,1241 2774,2773 0,1532 -1242,2774 -2774,2774 -1532,0 -2774,-1242 -2774,-2774 0,-1532 1242,-2773 2774,-2773z"/>
    <path class="fil7" d="M50829 16489l-196 0 -207 -586c0,0 0,-37 0,-113l184 0 0 -399 -237 0 0 1098 -188 0 0 -1259 513 0c67,0 100,33 100,99l0 488c0,46 -18,76 -54,90 -19,6 -60,10 -122,10l207 572zm638 0l-522 0 0 -1259 517 0 0 166 -330 0 0 368 286 0 0 163 -286 0 0 395 335 0 0 167zm748 -100c0,66 -33,100 -100,100l-420 0c-66,0 -99,-34 -99,-100l0 -1060c0,-66 33,-99 99,-99l420 0c67,0 100,33 100,99l0 313 -188 0 0 -251 -244 0 0 936 244 0 0 -263 188 0 0 325z"/>
    <path class="fil3" d="M38322 34160c-1,268 -135,402 -403,403l-1700 0c-268,-1 -403,-135 -404,-403l0 -4288c1,-268 136,-403 404,-404l1700 0c268,1 402,136 403,404l0 1264 -760 0 0 -1014 -987 0 0 3788 987 0 0 -1067 760 0 0 1317zm2680 403l-714 0 0 -113c-178,25 -356,52 -535,78 -235,32 -411,48 -534,48 -233,-1 -350,-135 -351,-403l0 -1187c1,-268 122,-402 365,-403l1062 0 0 -754 -713 0 0 467 -674 0 0 -617c1,-268 122,-402 364,-404l1327 0c268,2 402,136 403,404l0 2884zm-707 -593l0 -881 -713 0 0 907 713 -26zm1994 593l-733 0 0 -5095 733 0 0 5095zm1306 0l-733 0 0 -5095 733 0 0 5095zm4574 0l-794 0 -840 -2368c0,0 0,-154 0,-459l747 0 0 -1614 -961 0 0 4441 -760 0 0 -5095 2077 0c269,1 404,136 404,404l0 1974c0,184 -72,305 -218,361 -79,28 -243,42 -496,42l841 2314zm2554 -403c-1,268 -136,402 -404,403l-1320 0c-268,-1 -403,-135 -404,-403l0 -2481c1,-268 136,-402 404,-404l1320 0c268,2 403,136 404,404l0 1211 -206 206 -1208 0 0 920 700 0 0 -546 714 0 0 690zm-714 -1550l0 -788 -700 0 0 788 700 0zm3380 1550c-1,268 -136,402 -404,403l-1320 0c-268,-1 -402,-135 -403,-403l0 -2481c1,-268 135,-402 403,-404l1320 0c268,2 403,136 404,404l0 784 -727 0 0 -567 -667 0 0 2047 667 0 0 -627 727 0 0 844zm2701 0c0,269 -136,403 -404,404l-1360 0c-268,-1 -402,-135 -404,-404l0 -2480c2,-269 136,-403 404,-403l1360 0c268,0 404,134 404,403l0 2480zm-727 -216l0 -2047 -707 0 0 2047 707 0zm3340 -1295l-741 0 0 -753 -586 14 0 2653 -747 0 0 -3288 747 0 0 124c154,-29 307,-58 460,-87 184,-33 339,-50 463,-50 268,1 403,136 404,404l0 983zm2600 1914l-740 0 0 -119c-620,92 -968,139 -1043,139 -126,0 -225,-54 -296,-164 -72,-110 -108,-260 -108,-449l0 -2304c0,-159 96,-269 287,-333 139,-47 350,-71 632,-71 64,0 155,2 274,7 120,4 204,6 254,6l0 -1807 740 0 0 5095zm-740 -646l0 -2021 -459 0c-165,0 -248,82 -248,247l0 1572c0,161 78,241 235,241 36,0 194,-13 472,-39zm3409 243c-1,268 -136,402 -404,403l-1320 0c-268,-1 -402,-135 -403,-403l0 -2481c1,-268 135,-402 403,-404l1320 0c268,2 403,136 404,404l0 1211 -206 206 -1208 0 0 920 700 0 0 -546 714 0 0 690zm-714 -1550l0 -788 -700 0 0 788 700 0zm3327 39l-740 0 0 -753 -587 14 0 2653 -747 0 0 -3288 747 0 0 124c154,-29 308,-58 460,-87 184,-33 339,-50 463,-50 268,1 403,136 404,404l0 983z"/>
   </g>
  </g>
 </g>
</svg>
