<?xml version="1.0" encoding="UTF-8"?>
<!DOCTYPE svg PUBLIC "-//W3C//DTD SVG 1.1//EN" "http://www.w3.org/Graphics/SVG/1.1/DTD/svg11.dtd">
<!-- Creator: CorelDRAW X7 -->
<svg xmlns="http://www.w3.org/2000/svg" xml:space="preserve" width="144px" height="144px" version="1.1" style="shape-rendering:geometricPrecision; text-rendering:geometricPrecision; image-rendering:optimizeQuality; fill-rule:evenodd; clip-rule:evenodd"
viewBox="0 0 14400 14400"
 xmlns:xlink="http://www.w3.org/1999/xlink">
 <defs>
  <style type="text/css">
   <![CDATA[
    .fil2 {fill:#FEFEFE}
    .fil4 {fill:#E6E7E8}
    .fil6 {fill:#4B4B4D}
    .fil5 {fill:#ED3237}
    .fil0 {fill:#F2F3F3}
    .fil8 {fill:#FEFEFE;fill-rule:nonzero}
    .fil3 {fill:#373435;fill-rule:nonzero}
    .fil1 {fill:url(#id0)}
    .fil7 {fill:url(#id1)}
   ]]>
  </style>
  <linearGradient id="id0" gradientUnits="userSpaceOnUse" x1="7199.88" y1="12298.6" x2="7199.88" y2="2101.42">
   <stop offset="0" style="stop-opacity:1; stop-color:#282829"/>
   <stop offset="0.521569" style="stop-opacity:1; stop-color:#918B8B"/>
   <stop offset="1" style="stop-opacity:1; stop-color:#282829"/>
  </linearGradient>
  <radialGradient id="id1" gradientUnits="userSpaceOnUse" gradientTransform="matrix(0.999955 -0 -0 0.999955 0 0)" cx="7200" cy="7200" r="10500" fx="7200" fy="7200">
   <stop offset="0" style="stop-opacity:1; stop-color:#ED3237"/>
   <stop offset="0.631373" style="stop-opacity:1; stop-color:#F0464B"/>
   <stop offset="1" style="stop-opacity:1; stop-color:#B83336"/>
  </radialGradient>
 </defs>
 <g id="Layer_x0020_1">
  <metadata id="CorelCorpID_0Corel-Layer"/>
  <g id="_286170024">
   <path class="fil0" d="M1288 0l11824 0c709,0 1288,579 1288,1288l0 11824c0,709 -579,1288 -1288,1288l-11824 0c-709,0 -1288,-579 -1288,-1288l0 -11824c0,-709 579,-1288 1288,-1288z"/>
   <path class="fil1" d="M5156 2101l4088 0c363,0 661,298 661,662l0 8874c0,364 -298,662 -661,662l-4088 0c-363,0 -661,-298 -661,-662l0 -8874c0,-364 298,-662 661,-662z"/>
   <polygon class="fil2" points="4962,3542 9438,3542 9438,10859 4962,10859 "/>
   <path class="fil2" d="M6855 11399l690 0c110,0 200,89 200,199l0 0c0,110 -90,200 -200,200l-690 0c-110,0 -200,-90 -200,-200l0 0c0,-110 90,-199 200,-199z"/>
   <path class="fil3" d="M6855 11341l690 0c71,0 136,29 182,75 47,47 75,111 75,182l0 0c0,71 -28,135 -75,182l0 0c-47,46 -111,75 -182,75l-690 0c-71,0 -135,-29 -182,-75l0 -1c-47,-46 -76,-110 -76,-181l0 0c0,-71 29,-135 76,-182 46,-46 111,-75 182,-75zm690 115l-690 0c-39,0 -75,16 -101,42 -25,26 -41,61 -41,100l0 0c0,39 16,75 41,100l0 0c26,26 61,42 101,42l690 0c39,0 75,-16 101,-42l0 0c25,-25 41,-61 41,-100l0 0c0,-39 -16,-74 -41,-100 -26,-26 -62,-42 -101,-42z"/>
   <path class="fil2" d="M6383 2705l1615 0c64,0 117,52 117,116l0 1c0,64 -53,116 -117,116l-1615 0c-65,0 -117,-52 -117,-116l0 -1c0,-64 52,-116 117,-116z"/>
   <path class="fil3" d="M6383 2647l1615 0c48,0 91,20 123,51l0 0c32,32 51,75 51,123l0 1c0,47 -19,91 -51,123l0 0c-32,31 -75,51 -123,51l-1615 0c-48,0 -92,-20 -124,-51l0 0c-31,-32 -51,-76 -51,-123l0 -1c0,-47 20,-91 51,-123l0 0c32,-31 76,-51 124,-51zm1615 115l-1615 0c-17,0 -32,7 -42,18l0 0c-11,10 -17,25 -17,41l0 1c0,16 6,31 17,41l0 0c10,11 25,17 42,17l1615 0c16,0 31,-6 42,-17l0 0c10,-10 17,-25 17,-41l0 -1c0,-16 -7,-31 -17,-41l0 0c-11,-11 -26,-18 -42,-18z"/>
   <path class="fil4" d="M8766 2622c111,0 200,89 200,199 0,111 -89,200 -200,200 -110,0 -199,-89 -199,-200 0,-110 89,-199 199,-199z"/>
   <path class="fil3" d="M8766 2564c71,0 136,29 182,76 47,46 76,110 76,181 0,71 -29,136 -76,182 -46,47 -111,76 -182,76 -70,0 -135,-29 -181,-76 -47,-46 -76,-111 -76,-182 0,-71 29,-135 76,-181 46,-47 111,-76 181,-76zm101 157c-26,-25 -61,-41 -101,-41 -39,0 -74,16 -100,41 -25,26 -41,61 -41,100 0,40 16,75 41,101 26,25 61,41 100,41 40,0 75,-16 101,-41 25,-26 41,-61 41,-101 0,-39 -16,-74 -41,-100z"/>
   <g>
    <path class="fil5" d="M2180 9697c-640,-638 -1036,-1521 -1036,-2497 0,-976 396,-1859 1036,-2497l-356 -357c-731,729 -1184,1739 -1184,2854 0,1115 453,2125 1184,2854l356 -357z"/>
    <path class="fil5" d="M3248 8626c-365,-364 -591,-869 -591,-1426 0,-557 226,-1062 592,-1426l355 357c-274,273 -443,651 -443,1069 0,418 169,796 443,1069l-356 357z"/>
    <path class="fil5" d="M2536 9340c-548,-547 -888,-1304 -888,-2140 0,-836 340,-1593 888,-2140l357 357c-458,456 -741,1086 -741,1783 0,697 283,1327 740,1783l-356 357z"/>
   </g>
   <g>
    <path class="fil5" d="M12219 4703c641,638 1037,1521 1037,2497 0,976 -396,1859 -1037,2497l357 357c731,-729 1184,-1739 1184,-2854 0,-1115 -453,-2125 -1184,-2854l-357 357z"/>
    <path class="fil5" d="M11151 5774c366,364 592,869 592,1426 0,557 -226,1062 -592,1426l-356 -357c275,-273 444,-651 444,-1069 0,-418 -169,-796 -444,-1069l356 -357z"/>
    <path class="fil5" d="M11863 5060c549,547 889,1304 889,2140 0,836 -340,1593 -889,2141l-356 -358c458,-455 741,-1086 741,-1783 0,-697 -283,-1327 -741,-1783l356 -357z"/>
   </g>
   <path class="fil6" d="M7200 5741c806,0 1459,653 1459,1459 0,806 -653,1459 -1459,1459 -806,0 -1459,-653 -1459,-1459 0,-806 653,-1459 1459,-1459z"/>
   <circle class="fil7" cx="7200" cy="7200" r="1354"/>
   <path class="fil8" d="M7019 7507l-96 0 -101 -285c0,0 0,-19 0,-56l90 0 0 -195 -116 0 0 536 -92 0 0 -614 251 0c32,0 49,16 49,48l0 239c0,22 -9,36 -27,43 -9,3 -29,5 -60,5l102 279zm311 0l-255 0 0 -614 253 0 0 81 -161 0 0 179 139 0 0 80 -139 0 0 193 163 0 0 81zm366 -48c-1,32 -17,48 -49,48l-205 0c-33,0 -49,-16 -49,-48l0 -518c0,-32 16,-48 49,-48l205 0c32,0 48,16 49,48l0 153 -92 0 0 -123 -119 0 0 458 119 0 0 -129 92 0 0 159z"/>
  </g>
 </g>
</svg>
