<?xml version="1.0" encoding="UTF-8"?>
<!DOCTYPE svg PUBLIC "-//W3C//DTD SVG 1.1//EN" "http://www.w3.org/Graphics/SVG/1.1/DTD/svg11.dtd">
<!-- Creator: CorelDRAW X7 -->
<svg xmlns="http://www.w3.org/2000/svg" xml:space="preserve" width="256px" height="256px" version="1.1" style="shape-rendering:geometricPrecision; text-rendering:geometricPrecision; image-rendering:optimizeQuality; fill-rule:evenodd; clip-rule:evenodd"
viewBox="0 0 25600 25600"
 xmlns:xlink="http://www.w3.org/1999/xlink">
 <defs>
  <style type="text/css">
   <![CDATA[
    .fil2 {fill:#FEFEFE}
    .fil4 {fill:#E6E7E8}
    .fil6 {fill:#4B4B4D}
    .fil5 {fill:#ED3237}
    .fil0 {fill:#F2F3F3}
    .fil8 {fill:#FEFEFE;fill-rule:nonzero}
    .fil3 {fill:#373435;fill-rule:nonzero}
    .fil1 {fill:url(#id0)}
    .fil7 {fill:url(#id1)}
   ]]>
  </style>
  <linearGradient id="id0" gradientUnits="userSpaceOnUse" x1="12799.9" y1="21864.2" x2="12799.9" y2="3735.84">
   <stop offset="0" style="stop-opacity:1; stop-color:#282829"/>
   <stop offset="0.521569" style="stop-opacity:1; stop-color:#918B8B"/>
   <stop offset="1" style="stop-opacity:1; stop-color:#282829"/>
  </linearGradient>
  <radialGradient id="id1" gradientUnits="userSpaceOnUse" gradientTransform="matrix(0.99997 -0 -0 0.999994 0 0)" cx="12800" cy="12800" r="2407.8" fx="12800" fy="12800">
   <stop offset="0" style="stop-opacity:1; stop-color:#ED3237"/>
   <stop offset="0.631373" style="stop-opacity:1; stop-color:#F0464B"/>
   <stop offset="1" style="stop-opacity:1; stop-color:#B83336"/>
  </radialGradient>
 </defs>
 <g id="Layer_x0020_1">
  <metadata id="CorelCorpID_0Corel-Layer"/>
  <g id="_281271976">
   <path class="fil0" d="M2289 0l21021 0c1260,0 2290,1030 2290,2289l0 21022c0,1259 -1030,2289 -2290,2289l-21021 0c-1259,0 -2289,-1030 -2289,-2289l0 -21022c0,-1259 1030,-2289 2289,-2289z"/>
   <g>
    <path class="fil1" d="M9167 3736l7266 0c647,0 1176,529 1176,1176l0 15776c0,647 -529,1176 -1176,1176l-7266 0c-647,0 -1176,-529 -1176,-1176l0 -15776c0,-647 529,-1176 1176,-1176z"/>
    <polygon class="fil2" points="8821,6296 16779,6296 16779,19304 8821,19304 "/>
    <path class="fil2" d="M12186 20264l1228 0c195,0 355,160 355,355l0 0c0,195 -160,354 -355,354l-1228 0c-195,0 -355,-159 -355,-354l0 0c0,-195 160,-355 355,-355z"/>
    <path class="fil3" d="M12186 20162l1228 0c126,0 240,51 323,134 83,83 134,197 134,323l0 0c0,125 -51,240 -134,323l0 0c-83,83 -197,134 -323,134l-1228 0c-125,0 -240,-51 -323,-134l0 -1c-83,-82 -134,-197 -134,-322l0 0c0,-126 51,-240 134,-323 83,-83 197,-134 323,-134zm1228 205l-1228 0c-69,0 -133,28 -178,74 -46,46 -74,109 -74,178l0 0c0,69 28,133 73,178l1 0c45,46 108,74 178,74l1228 0c69,0 132,-29 178,-74l0 0c46,-45 74,-109 74,-178l0 0c0,-69 -28,-132 -74,-178 -46,-46 -109,-74 -178,-74z"/>
    <path class="fil2" d="M11347 4808l2872 0c114,0 207,94 207,208l0 0c0,114 -93,207 -207,207l-2872 0c-115,0 -208,-93 -208,-207l0 0c0,-114 93,-208 208,-208z"/>
    <path class="fil3" d="M11347 4706l2872 0c85,0 162,34 219,91l0 0c56,56 91,134 91,219l0 0c0,85 -35,163 -92,219l1 0c-57,56 -134,91 -219,91l-2872 0c-86,0 -163,-35 -219,-91l0 0c-56,-56 -91,-134 -91,-219l0 0c0,-85 35,-163 91,-219l0 0c56,-57 133,-91 219,-91zm2872 205l-2872 0c-29,0 -55,12 -74,31l-1 0c-19,18 -30,45 -30,74l0 0c0,29 11,55 30,74l1 0c19,19 45,31 74,31l2872 0c28,0 55,-12 74,-31l0 0c19,-19 31,-45 31,-74l0 0c0,-29 -12,-56 -31,-74l0 0c-19,-19 -46,-31 -74,-31z"/>
    <path class="fil4" d="M15585 4661c196,0 354,159 354,355 0,196 -158,354 -354,354 -196,0 -355,-158 -355,-354 0,-196 159,-355 355,-355z"/>
    <path class="fil3" d="M15585 4559c126,0 241,51 323,134 83,82 134,197 134,323 0,126 -51,240 -134,323 -82,83 -197,134 -323,134 -126,0 -241,-51 -323,-134 -83,-83 -134,-197 -134,-323 0,-126 51,-241 134,-323 82,-83 197,-134 323,-134zm178 279c-45,-46 -109,-74 -178,-74 -70,0 -133,28 -178,74 -46,45 -74,108 -74,178 0,69 28,133 74,178 45,46 108,74 178,74 69,0 133,-28 178,-74 46,-45 74,-109 74,-178 0,-70 -28,-133 -74,-178z"/>
    <g>
     <path class="fil5" d="M3876 17240c-1138,-1135 -1843,-2705 -1843,-4440 0,-1735 705,-3305 1843,-4440l-633 -635c-1301,1298 -2106,3092 -2106,5075 0,1983 805,3777 2106,5075l633 -635z"/>
     <path class="fil5" d="M5775 15336c-650,-649 -1052,-1545 -1052,-2536 0,-991 402,-1887 1052,-2536l633 635c-487,486 -789,1158 -789,1901 0,743 302,1415 789,1901l-633 635z"/>
     <path class="fil5" d="M4509 16605c-975,-973 -1579,-2318 -1579,-3805 0,-1487 604,-2832 1579,-3805l633 635c-813,810 -1316,1931 -1316,3170 0,1239 503,2360 1316,3170l-633 635z"/>
    </g>
    <g>
     <path class="fil5" d="M21724 8360c1138,1135 1842,2705 1842,4440 0,1735 -704,3305 -1842,4440l632 635c1302,-1298 2107,-3092 2107,-5075 0,-1983 -805,-3777 -2107,-5075l-632 635z"/>
     <path class="fil5" d="M19825 10264c650,649 1052,1545 1052,2536 0,991 -402,1887 -1052,2536l-633 -635c487,-486 789,-1158 789,-1901 0,-743 -302,-1415 -789,-1901l633 -635z"/>
     <path class="fil5" d="M21091 8995c975,973 1579,2318 1579,3805 0,1487 -604,2832 -1579,3805l-633 -634c813,-811 1316,-1932 1316,-3171 0,-1239 -503,-2360 -1316,-3170l633 -635z"/>
    </g>
    <path class="fil6" d="M12800 10205c1433,0 2595,1162 2595,2595 0,1433 -1162,2595 -2595,2595 -1433,0 -2595,-1162 -2595,-2595 0,-1433 1162,-2595 2595,-2595z"/>
    <path class="fil7" d="M12800 10392c1330,0 2408,1078 2408,2408 0,1330 -1078,2408 -2408,2408 -1330,0 -2408,-1078 -2408,-2408 0,-1330 1078,-2408 2408,-2408z"/>
    <path class="fil8" d="M12478 13346l-170 0 -180 -507c0,0 0,-33 0,-99l160 0 0 -346 -206 0 0 952 -163 0 0 -1092 445 0c58,0 87,29 87,86l0 424c0,39 -16,65 -47,77 -17,6 -52,9 -106,9l180 496zm554 0l-454 0 0 -1092 449 0 0 144 -286 0 0 319 248 0 0 142 -248 0 0 343 291 0 0 144zm649 -86c0,57 -29,86 -87,86l-364 0c-58,0 -87,-29 -87,-86l0 -920c0,-57 29,-86 87,-86l364 0c58,0 87,29 87,86l0 271 -163 0 0 -217 -212 0 0 812 212 0 0 -228 163 0 0 282z"/>
   </g>
  </g>
 </g>
</svg>
