<?xml version="1.0" encoding="UTF-8"?>
<!DOCTYPE svg PUBLIC "-//W3C//DTD SVG 1.1//EN" "http://www.w3.org/Graphics/SVG/1.1/DTD/svg11.dtd">
<!-- Creator: CorelDRAW X7 -->
<svg xmlns="http://www.w3.org/2000/svg" xml:space="preserve" width="36px" height="36px" version="1.1" style="shape-rendering:geometricPrecision; text-rendering:geometricPrecision; image-rendering:optimizeQuality; fill-rule:evenodd; clip-rule:evenodd"
viewBox="0 0 3600 3600"
 xmlns:xlink="http://www.w3.org/1999/xlink">
 <defs>
  <style type="text/css">
   <![CDATA[
    .fil2 {fill:#FEFEFE}
    .fil4 {fill:#E6E7E8}
    .fil6 {fill:#4B4B4D}
    .fil5 {fill:#ED3237}
    .fil0 {fill:#F2F3F3}
    .fil8 {fill:#FEFEFE;fill-rule:nonzero}
    .fil3 {fill:#373435;fill-rule:nonzero}
    .fil1 {fill:url(#id0)}
    .fil7 {fill:url(#id1)}
   ]]>
  </style>
  <linearGradient id="id0" gradientUnits="userSpaceOnUse" x1="1799.88" y1="3074.65" x2="1799.88" y2="525.354">
   <stop offset="0" style="stop-opacity:1; stop-color:#282829"/>
   <stop offset="0.521569" style="stop-opacity:1; stop-color:#918B8B"/>
   <stop offset="1" style="stop-opacity:1; stop-color:#282829"/>
  </linearGradient>
  <radialGradient id="id1" gradientUnits="userSpaceOnUse" gradientTransform="matrix(0.999867 -0 -0 0.999867 0 0)" cx="1800" cy="1800" r="338.622" fx="1800" fy="1800">
   <stop offset="0" style="stop-opacity:1; stop-color:#ED3237"/>
   <stop offset="0.631373" style="stop-opacity:1; stop-color:#F0464B"/>
   <stop offset="1" style="stop-opacity:1; stop-color:#B83336"/>
  </radialGradient>
 </defs>
 <g id="Layer_x0020_1">
  <metadata id="CorelCorpID_0Corel-Layer"/>
  <path class="fil0" d="M322 0l2956 0c177,0 322,145 322,322l0 2956c0,177 -145,322 -322,322l-2956 0c-177,0 -322,-145 -322,-322l0 -2956c0,-177 145,-322 322,-322z"/>
  <g id="_286169136">
   <path class="fil1" d="M1289 525l1022 0c91,0 165,75 165,166l0 2218c0,91 -74,166 -165,166l-1022 0c-91,0 -165,-75 -165,-166l0 -2218c0,-91 74,-166 165,-166z"/>
   <polygon class="fil2" points="1241,885 2359,885 2359,2715 1241,2715 "/>
   <path class="fil2" d="M1714 2850l172 0c28,0 50,22 50,49l0 0c0,28 -22,50 -50,50l-172 0c-28,0 -50,-22 -50,-50l0 0c0,-27 22,-49 50,-49z"/>
   <path class="fil3" d="M1714 2835l172 0c18,0 34,7 46,19 11,12 19,28 19,45l0 0c0,18 -8,34 -19,46l0 0c-12,12 -28,19 -46,19l-172 0c-18,0 -34,-7 -46,-19l0 0c-11,-12 -19,-28 -19,-46l0 0c0,-17 8,-33 19,-45 12,-12 28,-19 46,-19zm172 29l-172 0c-10,0 -19,4 -25,10 -7,7 -11,16 -11,25l0 0c0,10 4,19 11,26l0 0c6,6 15,10 25,10l172 0c10,0 19,-4 25,-10l0 0c7,-7 11,-16 11,-26l0 0c0,-9 -4,-18 -11,-25 -6,-6 -15,-10 -25,-10z"/>
   <path class="fil2" d="M1596 676l403 0c17,0 30,13 30,29l0 0c0,16 -13,30 -30,30l-403 0c-16,0 -30,-14 -30,-30l0 0c0,-16 14,-29 30,-29z"/>
   <path class="fil3" d="M1596 662l403 0c12,0 23,5 31,13l0 0c8,8 13,18 13,30l0 0c0,12 -5,23 -13,31l0 0c-8,8 -19,13 -31,13l-403 0c-12,0 -23,-5 -31,-13l0 0c-8,-8 -13,-19 -13,-31l0 0c0,-12 5,-23 13,-30l0 0c8,-8 19,-13 31,-13zm403 29l-403 0c-4,0 -8,1 -11,4l0 0c-2,3 -4,6 -4,10l0 0c0,4 2,8 4,11l0 0c3,2 7,4 11,4l403 0c5,0 8,-2 11,-4l0 0c3,-3 4,-7 4,-11l0 0c0,-4 -1,-7 -4,-10l0 0c-3,-3 -6,-4 -11,-4z"/>
   <path class="fil4" d="M2192 656c27,0 49,22 49,49 0,28 -22,50 -49,50 -28,0 -50,-22 -50,-50 0,-27 22,-49 50,-49z"/>
   <path class="fil3" d="M2192 641c17,0 33,7 45,19 12,12 19,28 19,45 0,18 -7,34 -19,46 -12,11 -28,19 -45,19 -18,0 -34,-8 -46,-19 -12,-12 -19,-28 -19,-46 0,-17 7,-33 19,-45 12,-12 28,-19 46,-19zm25 39c-7,-6 -16,-10 -25,-10 -10,0 -19,4 -26,10 -6,7 -10,16 -10,25 0,10 4,19 10,25 7,7 16,11 26,11 9,0 18,-4 25,-11 6,-6 10,-15 10,-25 0,-9 -4,-18 -10,-25z"/>
   <g>
    <path class="fil5" d="M545 2424c-160,-159 -259,-380 -259,-624 0,-244 99,-465 259,-624l-89 -90c-183,183 -296,435 -296,714 0,279 113,531 296,714l89 -90z"/>
    <path class="fil5" d="M812 2157c-91,-92 -148,-218 -148,-357 0,-139 57,-265 148,-357l89 90c-68,68 -111,163 -111,267 0,104 43,199 111,267l-89 90z"/>
    <path class="fil5" d="M634 2335c-137,-137 -222,-326 -222,-535 0,-209 85,-398 222,-535l89 89c-114,114 -185,272 -185,446 0,174 71,332 185,446l-89 89z"/>
   </g>
   <g>
    <path class="fil5" d="M3055 1176c160,159 259,380 259,624 0,244 -99,465 -259,624l89 90c183,-183 296,-435 296,-714 0,-279 -113,-531 -296,-714l-89 90z"/>
    <path class="fil5" d="M2788 1443c91,92 148,218 148,357 0,139 -57,265 -148,357l-89 -90c68,-68 111,-163 111,-267 0,-104 -43,-199 -111,-267l89 -90z"/>
    <path class="fil5" d="M2966 1265c137,137 222,326 222,535 0,209 -85,398 -222,535l-89 -89c114,-114 185,-272 185,-446 0,-174 -71,-332 -185,-446l89 -89z"/>
   </g>
   <path class="fil6" d="M1800 1435c201,0 365,164 365,365 0,201 -164,365 -365,365 -201,0 -365,-164 -365,-365 0,-201 164,-365 365,-365z"/>
   <path class="fil7" d="M1800 1461c187,0 339,152 339,339 0,187 -152,339 -339,339 -187,0 -339,-152 -339,-339 0,-187 152,-339 339,-339z"/>
   <path class="fil8" d="M1755 1877l-24 0 -26 -72c0,0 0,-4 0,-13l23 0 0 -49 -29 0 0 134 -23 0 0 -154 63 0c8,0 12,4 12,12l0 60c0,5 -2,9 -7,11 -2,1 -7,1 -15,1l26 70zm78 0l-64 0 0 -154 63 0 0 21 -40 0 0 44 35 0 0 20 -35 0 0 49 41 0 0 20zm91 -12c0,8 -4,12 -12,12l-52 0c-8,0 -12,-4 -12,-12l0 -130c0,-8 4,-12 12,-12l52 0c8,0 12,4 12,12l0 38 -23 0 0 -30 -30 0 0 114 30 0 0 -32 23 0 0 40z"/>
  </g>
 </g>
</svg>
