<?xml version="1.0" encoding="UTF-8"?>
<!DOCTYPE svg PUBLIC "-//W3C//DTD SVG 1.1//EN" "http://www.w3.org/Graphics/SVG/1.1/DTD/svg11.dtd">
<!-- Creator: CorelDRAW X7 -->
<svg xmlns="http://www.w3.org/2000/svg" xml:space="preserve" width="48px" height="48px" version="1.1" style="shape-rendering:geometricPrecision; text-rendering:geometricPrecision; image-rendering:optimizeQuality; fill-rule:evenodd; clip-rule:evenodd"
viewBox="0 0 4800 4800"
 xmlns:xlink="http://www.w3.org/1999/xlink">
 <defs>
  <style type="text/css">
   <![CDATA[
    .fil2 {fill:#FEFEFE}
    .fil4 {fill:#E6E7E8}
    .fil6 {fill:#4B4B4D}
    .fil5 {fill:#ED3237}
    .fil0 {fill:#F2F3F3}
    .fil8 {fill:#FEFEFE;fill-rule:nonzero}
    .fil3 {fill:#373435;fill-rule:nonzero}
    .fil1 {fill:url(#id0)}
    .fil7 {fill:url(#id1)}
   ]]>
  </style>
  <linearGradient id="id0" gradientUnits="userSpaceOnUse" x1="2400" y1="4099.49" x2="2400" y2="700.512">
   <stop offset="0" style="stop-opacity:1; stop-color:#282829"/>
   <stop offset="0.521569" style="stop-opacity:1; stop-color:#918B8B"/>
   <stop offset="1" style="stop-opacity:1; stop-color:#282829"/>
  </linearGradient>
  <radialGradient id="id1" gradientUnits="userSpaceOnUse" gradientTransform="matrix(1.00004 -0 -0 1.00004 0 0)" cx="2400" cy="2400" r="451.417" fx="2400" fy="2400">
   <stop offset="0" style="stop-opacity:1; stop-color:#ED3237"/>
   <stop offset="0.631373" style="stop-opacity:1; stop-color:#F0464B"/>
   <stop offset="1" style="stop-opacity:1; stop-color:#B83336"/>
  </radialGradient>
 </defs>
 <g id="Layer_x0020_1">
  <metadata id="CorelCorpID_0Corel-Layer"/>
  <g id="_274429456">
   <path class="fil0" d="M429 0l3942 0c236,0 429,193 429,429l0 3942c0,236 -193,429 -429,429l-3942 0c-236,0 -429,-193 -429,-429l0 -3942c0,-236 193,-429 429,-429z"/>
   <path class="fil1" d="M1719 701l1362 0c121,0 221,99 221,220l0 2958c0,121 -100,221 -221,221l-1362 0c-121,0 -221,-100 -221,-221l0 -2958c0,-121 100,-220 221,-220z"/>
   <polygon class="fil2" points="1654,1181 3146,1181 3146,3619 1654,3619 "/>
   <path class="fil2" d="M2285 3800l230 0c37,0 67,29 67,66l0 0c0,37 -30,66 -67,66l-230 0c-37,0 -67,-29 -67,-66l0 0c0,-37 30,-66 67,-66z"/>
   <path class="fil3" d="M2285 3780l230 0c24,0 45,10 61,26 15,15 25,36 25,60l0 0c0,24 -10,45 -25,61l0 0c-16,15 -37,25 -61,25l-230 0c-24,0 -45,-10 -61,-25l0 -1c-15,-15 -25,-37 -25,-60l0 0c0,-24 10,-45 25,-60 16,-16 37,-26 61,-26zm230 39l-230 0c-13,0 -25,5 -33,14 -9,8 -14,20 -14,33l0 0c0,13 5,25 13,33l1 1c8,8 20,13 33,13l230 0c13,0 25,-5 33,-14l1 0c8,-8 13,-20 13,-33l0 0c0,-13 -5,-25 -14,-33 -8,-9 -20,-14 -33,-14z"/>
   <path class="fil2" d="M2128 902l538 0c21,0 39,17 39,39l0 0c0,21 -18,38 -39,38l-538 0c-22,0 -39,-17 -39,-38l0 0c0,-22 17,-39 39,-39z"/>
   <path class="fil3" d="M2128 882l538 0c16,0 30,7 41,17l0 1c11,10 17,24 17,41l0 0c0,15 -6,30 -17,40l0 1c-11,10 -25,17 -41,17l-538 0c-16,0 -31,-7 -42,-17l0 -1c-10,-10 -17,-25 -17,-40l0 0c0,-16 7,-31 17,-42l0 0c11,-10 26,-17 42,-17zm538 39l-538 0c-6,0 -11,2 -14,6l0 0c-4,3 -6,8 -6,14l0 0c0,5 2,10 6,13l0 0c3,4 8,6 14,6l538 0c5,0 10,-2 14,-6l0 0c3,-3 6,-8 6,-13l0 0c0,-6 -3,-11 -6,-14l0 0c-4,-4 -9,-6 -14,-6z"/>
   <path class="fil4" d="M2922 874c37,0 67,30 67,67 0,36 -30,66 -67,66 -37,0 -66,-30 -66,-66 0,-37 29,-67 66,-67z"/>
   <path class="fil3" d="M2922 855c24,0 45,9 61,25 15,15 25,37 25,61 0,23 -10,45 -25,60 -16,16 -37,25 -61,25 -23,0 -45,-9 -60,-25 -16,-15 -26,-37 -26,-60 0,-24 10,-46 26,-61 15,-16 37,-25 60,-25zm34 52c-9,-9 -21,-14 -34,-14 -13,0 -25,5 -33,14 -9,9 -14,20 -14,34 0,13 5,24 14,33 8,8 20,14 33,14 13,0 25,-6 34,-14 8,-9 13,-20 13,-33 0,-14 -5,-25 -13,-34z"/>
   <g>
    <path class="fil5" d="M727 3232c-214,-212 -346,-507 -346,-832 0,-325 132,-620 346,-832l-119 -119c-244,243 -395,579 -395,951 0,372 151,708 395,951l119 -119z"/>
    <path class="fil5" d="M1083 2876c-122,-122 -198,-290 -198,-476 0,-186 76,-354 198,-475l119 119c-92,91 -148,217 -148,356 0,139 56,265 148,356l-119 120z"/>
    <path class="fil5" d="M845 3114c-182,-183 -296,-435 -296,-714 0,-279 114,-531 296,-714l119 120c-152,152 -247,362 -247,594 0,232 95,442 247,594l-119 120z"/>
   </g>
   <g>
    <path class="fil5" d="M4073 1568c214,212 346,507 346,832 0,325 -132,620 -346,832l119 119c244,-243 395,-579 395,-951 0,-372 -151,-708 -395,-951l-119 119z"/>
    <path class="fil5" d="M3717 1925c122,121 198,289 198,475 0,186 -76,354 -198,476l-119 -120c92,-91 148,-217 148,-356 0,-139 -56,-265 -148,-356l119 -119z"/>
    <path class="fil5" d="M3954 1686c183,183 297,435 297,714 0,279 -114,531 -297,714l-118 -120c152,-151 247,-362 247,-594 0,-232 -95,-442 -247,-594l118 -120z"/>
   </g>
   <path class="fil6" d="M2400 1914c269,0 486,217 486,486 0,269 -217,486 -486,486 -269,0 -486,-217 -486,-486 0,-269 217,-486 486,-486z"/>
   <path class="fil7" d="M2400 1949c249,0 451,202 451,451 0,249 -202,451 -451,451 -249,0 -451,-202 -451,-451 0,-249 202,-451 451,-451z"/>
   <path class="fil8" d="M2340 2503l-32 0 -34 -96c0,0 0,-6 0,-18l30 0 0 -65 -39 0 0 179 -30 0 0 -205 83 0c11,0 17,5 17,16l0 79c0,8 -3,12 -9,15 -3,1 -10,1 -20,1l34 94zm103 0l-85 0 0 -205 85 0 0 27 -54 0 0 59 46 0 0 27 -46 0 0 64 54 0 0 28zm122 -17c0,11 -5,16 -16,17l-68 0c-11,-1 -17,-6 -17,-17l0 -172c0,-11 6,-16 17,-16l68 0c11,0 16,5 16,16l0 51 -30 0 0 -41 -40 0 0 152 40 0 0 -43 30 0 0 53z"/>
  </g>
 </g>
</svg>
