<?xml version="1.0" encoding="UTF-8"?>
<!DOCTYPE svg PUBLIC "-//W3C//DTD SVG 1.1//EN" "http://www.w3.org/Graphics/SVG/1.1/DTD/svg11.dtd">
<!-- Creator: CorelDRAW X7 -->
<svg xmlns="http://www.w3.org/2000/svg" xml:space="preserve" width="72px" height="72px" version="1.1" style="shape-rendering:geometricPrecision; text-rendering:geometricPrecision; image-rendering:optimizeQuality; fill-rule:evenodd; clip-rule:evenodd"
viewBox="0 0 7200 7200"
 xmlns:xlink="http://www.w3.org/1999/xlink">
 <defs>
  <style type="text/css">
   <![CDATA[
    .fil2 {fill:#FEFEFE}
    .fil4 {fill:#E6E7E8}
    .fil6 {fill:#4B4B4D}
    .fil5 {fill:#ED3237}
    .fil0 {fill:#F2F3F3}
    .fil8 {fill:#FEFEFE;fill-rule:nonzero}
    .fil3 {fill:#373435;fill-rule:nonzero}
    .fil1 {fill:url(#id0)}
    .fil7 {fill:url(#id1)}
   ]]>
  </style>
  <linearGradient id="id0" gradientUnits="userSpaceOnUse" x1="3600" y1="6149.29" x2="3600" y2="1050.71">
   <stop offset="0" style="stop-opacity:1; stop-color:#282829"/>
   <stop offset="0.521569" style="stop-opacity:1; stop-color:#918B8B"/>
   <stop offset="1" style="stop-opacity:1; stop-color:#282829"/>
  </linearGradient>
  <radialGradient id="id1" gradientUnits="userSpaceOnUse" gradientTransform="matrix(1.00004 -0 -0 1.00004 0 0)" cx="3600" cy="3599.88" r="677.244" fx="3600" fy="3599.88">
   <stop offset="0" style="stop-opacity:1; stop-color:#ED3237"/>
   <stop offset="0.631373" style="stop-opacity:1; stop-color:#F0464B"/>
   <stop offset="1" style="stop-opacity:1; stop-color:#B83336"/>
  </radialGradient>
 </defs>
 <g id="Layer_x0020_1">
  <metadata id="CorelCorpID_0Corel-Layer"/>
  <g id="_502152936">
   <path class="fil0" d="M644 0l5912 0c354,0 644,290 644,644l0 5912c0,354 -290,644 -644,644l-5912 0c-354,0 -644,-290 -644,-644l0 -5912c0,-354 290,-644 644,-644z"/>
   <path class="fil1" d="M2578 1051l2044 0c182,0 330,149 330,330l0 4438c0,181 -148,330 -330,330l-2044 0c-182,0 -330,-149 -330,-330l0 -4438c0,-181 148,-330 330,-330z"/>
   <polygon class="fil2" points="2481,1771 4719,1771 4719,5429 2481,5429 "/>
   <path class="fil2" d="M3427 5699l346 0c55,0 99,45 99,100l0 0c0,55 -44,100 -99,100l-346 0c-55,0 -99,-45 -99,-100l0 0c0,-55 44,-100 99,-100z"/>
   <path class="fil3" d="M3427 5670l346 0c35,0 67,15 91,38 23,24 37,56 37,91l0 0c0,35 -14,68 -37,91l0 0c-24,23 -56,38 -91,38l-346 0c-35,0 -67,-15 -90,-38l-1 0c-23,-24 -37,-56 -37,-91l0 0c0,-35 14,-67 37,-91 24,-23 56,-38 91,-38zm346 58l-346 0c-19,0 -37,8 -50,21 -13,13 -21,31 -21,50l0 0c0,20 8,37 21,50l0 0c13,13 31,21 50,21l346 0c19,0 37,-8 50,-21l0 0c13,-13 21,-30 21,-50l0 0c0,-19 -8,-37 -21,-50 -13,-13 -31,-21 -50,-21z"/>
   <path class="fil2" d="M3191 1352l808 0c32,0 58,27 58,59l0 0c0,32 -26,58 -58,58l-808 0c-32,0 -58,-26 -58,-58l0 0c0,-32 26,-59 58,-59z"/>
   <path class="fil3" d="M3191 1324l808 0c24,0 46,9 62,25l0 0c15,16 25,38 25,62l0 0c0,24 -10,46 -25,61l0 0c-16,16 -38,26 -62,26l-808 0c-24,0 -46,-10 -61,-26l0 0c-16,-15 -26,-37 -26,-61l0 0c0,-24 10,-46 26,-62l0 0c15,-16 37,-25 61,-25zm808 57l-808 0c-8,0 -15,3 -21,9l0 0c-5,5 -8,13 -8,21l0 0c0,8 3,15 8,21l0 0c6,5 13,8 21,8l808 0c8,0 15,-3 21,-8l0 0c5,-6 9,-13 9,-21l0 0c0,-8 -4,-16 -9,-21l0 0c-6,-6 -13,-9 -21,-9z"/>
   <path class="fil4" d="M4383 1311c55,0 100,45 100,100 0,55 -45,99 -100,99 -55,0 -99,-44 -99,-99 0,-55 44,-100 99,-100z"/>
   <path class="fil3" d="M4383 1282c36,0 68,14 91,38 23,23 38,55 38,91 0,35 -15,67 -38,91 -23,23 -55,37 -91,37 -35,0 -67,-14 -91,-37 -23,-24 -37,-56 -37,-91 0,-36 14,-68 37,-91 24,-24 56,-38 91,-38zm50 79c-12,-13 -30,-21 -50,-21 -19,0 -37,8 -50,21 -13,12 -21,30 -21,50 0,19 8,37 21,50 13,13 31,21 50,21 20,0 38,-8 50,-21 13,-13 21,-31 21,-50 0,-20 -8,-38 -21,-50z"/>
   <g>
    <path class="fil5" d="M1090 4849c-320,-319 -518,-761 -518,-1249 0,-488 198,-929 518,-1249l-178 -178c-366,365 -592,869 -592,1427 0,558 226,1062 592,1427l178 -178z"/>
    <path class="fil5" d="M1624 4313c-183,-182 -296,-434 -296,-713 0,-279 113,-531 296,-713l178 178c-137,137 -222,326 -222,535 0,209 85,398 222,535l-178 178z"/>
    <path class="fil5" d="M1268 4670c-274,-273 -444,-652 -444,-1070 0,-418 170,-797 444,-1070l178 178c-228,228 -370,544 -370,892 0,348 142,664 370,892l-178 178z"/>
   </g>
   <g>
    <path class="fil5" d="M6110 2351c320,320 518,761 518,1249 0,488 -198,929 -518,1249l178 178c366,-365 592,-869 592,-1427 0,-558 -226,-1062 -592,-1427l-178 178z"/>
    <path class="fil5" d="M5576 2887c183,182 296,434 296,713 0,279 -113,531 -296,713l-178 -178c137,-137 222,-326 222,-535 0,-209 -85,-398 -222,-535l178 -178z"/>
    <path class="fil5" d="M5932 2530c274,273 444,652 444,1070 0,418 -170,797 -444,1070l-178 -178c228,-228 370,-544 370,-892 0,-348 -142,-664 -370,-892l178 -178z"/>
   </g>
   <path class="fil6" d="M3600 2870c403,0 730,327 730,730 0,403 -327,730 -730,730 -403,0 -730,-327 -730,-730 0,-403 327,-730 730,-730z"/>
   <path class="fil7" d="M3600 2923c374,0 677,303 677,677 0,374 -303,677 -677,677 -374,0 -677,-303 -677,-677 0,-374 303,-677 677,-677z"/>
   <path class="fil8" d="M3509 3754l-47 0 -51 -143c0,0 0,-9 0,-28l45 0 0 -97 -58 0 0 268 -46 0 0 -308 125 0c17,0 25,8 25,25l0 119c0,11 -5,18 -13,22 -5,1 -15,2 -30,2l50 140zm156 0l-127 0 0 -308 126 0 0 41 -81 0 0 90 70 0 0 40 -70 0 0 96 82 0 0 41zm183 -25c0,17 -8,25 -25,25l-102 0c-16,0 -24,-8 -25,-25l0 -258c1,-17 9,-25 25,-25l102 0c17,0 25,8 25,25l0 76 -46 0 0 -61 -60 0 0 228 60 0 0 -64 46 0 0 79z"/>
  </g>
 </g>
</svg>
