<?xml version="1.0" encoding="UTF-8"?>
<!DOCTYPE svg PUBLIC "-//W3C//DTD SVG 1.1//EN" "http://www.w3.org/Graphics/SVG/1.1/DTD/svg11.dtd">
<!-- Creator: CorelDRAW X7 -->
<svg xmlns="http://www.w3.org/2000/svg" xml:space="preserve" width="96px" height="96px" version="1.1" style="shape-rendering:geometricPrecision; text-rendering:geometricPrecision; image-rendering:optimizeQuality; fill-rule:evenodd; clip-rule:evenodd"
viewBox="0 0 9600 9600"
 xmlns:xlink="http://www.w3.org/1999/xlink">
 <defs>
  <style type="text/css">
   <![CDATA[
    .fil2 {fill:#FEFEFE}
    .fil4 {fill:#E6E7E8}
    .fil6 {fill:#4B4B4D}
    .fil5 {fill:#ED3237}
    .fil0 {fill:#F2F3F3}
    .fil8 {fill:#FEFEFE;fill-rule:nonzero}
    .fil3 {fill:#373435;fill-rule:nonzero}
    .fil1 {fill:url(#id0)}
    .fil7 {fill:url(#id1)}
   ]]>
  </style>
  <linearGradient id="id0" gradientUnits="userSpaceOnUse" x1="4800" y1="8199.09" x2="4800" y2="1400.91">
   <stop offset="0" style="stop-opacity:1; stop-color:#282829"/>
   <stop offset="0.521569" style="stop-opacity:1; stop-color:#918B8B"/>
   <stop offset="1" style="stop-opacity:1; stop-color:#282829"/>
  </linearGradient>
  <radialGradient id="id1" gradientUnits="userSpaceOnUse" gradientTransform="matrix(0.999976 -0 -0 0.999976 0 0)" cx="4800" cy="4800" r="10500" fx="4800" fy="4800">
   <stop offset="0" style="stop-opacity:1; stop-color:#ED3237"/>
   <stop offset="0.631373" style="stop-opacity:1; stop-color:#F0464B"/>
   <stop offset="1" style="stop-opacity:1; stop-color:#B83336"/>
  </radialGradient>
 </defs>
 <g id="Layer_x0020_1">
  <metadata id="CorelCorpID_0Corel-Layer"/>
  <g id="_502159272">
   <path class="fil0" d="M859 0l7882 0c473,0 859,386 859,859l0 7882c0,473 -386,859 -859,859l-7882 0c-473,0 -859,-386 -859,-859l0 -7882c0,-473 386,-859 859,-859z"/>
   <path class="fil1" d="M3438 1401l2724 0c243,0 441,198 441,441l0 5916c0,243 -198,441 -441,441l-2724 0c-243,0 -441,-198 -441,-441l0 -5916c0,-243 198,-441 441,-441z"/>
   <polygon class="fil2" points="3308,2361 6292,2361 6292,7239 3308,7239 "/>
   <path class="fil2" d="M4570 7599l460 0c73,0 133,60 133,133l0 0c0,73 -60,133 -133,133l-460 0c-73,0 -133,-60 -133,-133l0 0c0,-73 60,-133 133,-133z"/>
   <path class="fil3" d="M4570 7561l460 0c47,0 90,19 121,50 31,31 51,74 51,121l0 0c0,47 -20,90 -51,121l0 0c-31,31 -74,50 -121,50l-460 0c-47,0 -90,-19 -121,-50l0 0c-31,-31 -51,-74 -51,-121l0 0c0,-47 20,-90 51,-121 31,-31 74,-50 121,-50zm460 77l-460 0c-26,0 -50,10 -67,27 -17,17 -28,41 -28,67l0 0c0,26 11,50 28,67l0 0c17,17 41,28 67,28l460 0c26,0 50,-11 67,-28l0 0c17,-17 28,-41 28,-67l0 0c0,-26 -11,-50 -28,-67 -17,-17 -41,-27 -67,-27z"/>
   <path class="fil2" d="M4255 1803l1077 0c43,0 78,35 78,78l0 0c0,43 -35,78 -78,78l-1077 0c-43,0 -78,-35 -78,-78l0 0c0,-43 35,-78 78,-78z"/>
   <path class="fil3" d="M4255 1765l1077 0c32,0 61,13 82,34l0 0c21,21 34,50 34,82l0 0c0,32 -13,61 -34,82l0 0c-21,21 -50,34 -82,34l-1077 0c-32,0 -61,-13 -82,-34l0 0c-21,-21 -34,-50 -34,-82l0 0c0,-32 13,-61 34,-82l0 0c21,-21 50,-34 82,-34zm1077 77l-1077 0c-11,0 -21,4 -28,11l0 0c-7,7 -11,17 -11,28l0 0c0,11 4,21 11,28l0 0c7,7 17,11 28,11l1077 0c11,0 21,-4 28,-11l0 0c7,-7 11,-17 11,-28l0 0c0,-11 -4,-21 -11,-28l0 0c-7,-7 -17,-11 -28,-11z"/>
   <path class="fil4" d="M5844 1748c74,0 133,60 133,133 0,73 -59,133 -133,133 -73,0 -133,-60 -133,-133 0,-73 60,-133 133,-133z"/>
   <path class="fil3" d="M5844 1710c48,0 91,19 122,50 31,31 50,74 50,121 0,47 -19,90 -50,121 -31,31 -74,50 -122,50 -47,0 -90,-19 -121,-50 -31,-31 -50,-74 -50,-121 0,-47 19,-90 50,-121 31,-31 74,-50 121,-50zm67 104c-17,-17 -41,-28 -67,-28 -26,0 -50,11 -67,28 -17,17 -27,41 -27,67 0,26 10,50 27,67 17,17 41,28 67,28 26,0 50,-11 67,-28 17,-17 28,-41 28,-67 0,-26 -11,-50 -28,-67z"/>
   <g>
    <path class="fil5" d="M1454 6465c-427,-426 -691,-1014 -691,-1665 0,-650 264,-1239 691,-1665l-238 -238c-488,487 -790,1159 -790,1903 0,744 302,1416 790,1903l238 -238z"/>
    <path class="fil5" d="M2166 5751c-244,-243 -395,-579 -395,-951 0,-371 151,-708 395,-951l237 238c-183,182 -296,434 -296,713 0,279 113,531 296,713l-237 238z"/>
    <path class="fil5" d="M1691 6227c-366,-365 -592,-869 -592,-1427 0,-557 226,-1062 592,-1427l237 238c-304,304 -493,724 -493,1189 0,465 189,885 493,1189l-237 238z"/>
   </g>
   <g>
    <path class="fil5" d="M8146 3135c427,426 691,1015 691,1665 0,651 -264,1239 -691,1665l238 238c488,-487 790,-1159 790,-1903 0,-744 -302,-1416 -790,-1903l-238 238z"/>
    <path class="fil5" d="M7434 3849c244,243 395,580 395,951 0,372 -151,708 -395,951l-237 -238c183,-182 296,-434 296,-713 0,-279 -113,-531 -296,-713l237 -238z"/>
    <path class="fil5" d="M7909 3373c366,365 592,870 592,1427 0,558 -226,1062 -592,1427l-237 -238c304,-304 493,-724 493,-1189 0,-465 -189,-885 -493,-1189l237 -238z"/>
   </g>
   <path class="fil6" d="M4800 3827c537,0 973,436 973,973 0,537 -436,973 -973,973 -537,0 -973,-436 -973,-973 0,-537 436,-973 973,-973z"/>
   <circle class="fil7" cx="4800" cy="4800" r="903"/>
   <path class="fil8" d="M4679 5005l-64 0 -67 -191c0,0 0,-12 0,-36l60 0 0 -130 -77 0 0 357 -61 0 0 -410 167 0c21,0 32,11 32,33l0 158c0,15 -6,25 -17,29 -7,3 -20,4 -40,4l67 186zm208 0l-170 0 0 -410 168 0 0 54 -107 0 0 120 93 0 0 53 -93 0 0 129 109 0 0 54zm243 -32c0,21 -11,32 -32,32l-137 0c-21,0 -32,-11 -32,-32l0 -345c0,-22 11,-33 32,-33l137 0c21,0 32,11 32,33l0 101 -61 0 0 -81 -79 0 0 304 79 0 0 -86 61 0 0 107z"/>
  </g>
 </g>
</svg>
